<?xml version="1.0" standalone="no"?>
<!DOCTYPE svg PUBLIC "-//W3C//DTD SVG 20010904//EN"
 "http://www.w3.org/TR/2001/REC-SVG-20010904/DTD/svg10.dtd">
<svg version="1.0" xmlns="http://www.w3.org/2000/svg"
 width="260.000000pt" height="260.000000pt" viewBox="0 0 260.000000 260.000000"
 preserveAspectRatio="xMidYMid meet">
<metadata>
Created by potrace 1.11, written by Peter Selinger 2001-2013
</metadata>
<g transform="translate(0.000000,260.000000) scale(0.100000,-0.100000)"
fill="#000000" stroke="none">
<path d="M1262 2436 c-13 -15 -43 -109 -45 -138 -1 -28 -14 -38 -49 -38 -22 0
-30 8 -51 53 -14 28 -36 64 -49 80 -22 26 -25 26 -61 15 -29 -9 -39 -18 -45
-42 -8 -30 -8 -106 -1 -135 2 -8 -11 -23 -29 -33 l-32 -20 -19 23 c-38 48 -67
77 -92 93 -25 16 -29 16 -60 -2 -31 -17 -34 -22 -32 -64 0 -25 10 -66 21 -92
l21 -46 -30 -21 c-30 -21 -31 -21 -52 -2 -30 27 -66 48 -103 60 -29 10 -35 8
-62 -18 l-31 -30 20 -47 c11 -26 31 -61 45 -79 29 -39 29 -41 3 -69 -19 -20
-24 -21 -52 -9 -42 17 -133 34 -145 26 -4 -3 -17 -20 -27 -38 -18 -32 -18 -32
9 -67 15 -20 44 -50 66 -67 35 -28 38 -34 27 -53 -6 -11 -12 -25 -12 -31 -1
-5 -7 -8 -15 -6 -24 6 -150 7 -160 1 -5 -3 -16 -23 -25 -43 -15 -37 -15 -38
12 -64 16 -14 52 -37 81 -50 49 -23 52 -27 50 -59 -1 -19 -7 -35 -13 -35 -5
-1 -19 -3 -30 -4 -39 -5 -100 -25 -122 -40 -16 -11 -21 -24 -19 -50 1 -19 6
-39 11 -43 15 -14 75 -33 120 -39 46 -6 55 -16 55 -58 0 -24 -5 -31 -20 -32
-11 -1 -45 -18 -76 -39 -55 -37 -55 -37 -50 -78 3 -23 5 -42 5 -43 5 -13 115
-23 156 -13 27 6 44 -3 53 -29 9 -26 7 -31 -35 -66 -25 -21 -53 -51 -63 -68
-17 -28 -17 -32 -2 -63 8 -19 23 -34 31 -35 34 -3 68 4 120 22 l53 18 19 -22
c24 -29 24 -30 -15 -87 -48 -69 -54 -105 -25 -136 12 -13 31 -24 41 -24 24 0
96 36 125 63 20 18 26 19 47 7 35 -18 37 -29 15 -91 -28 -81 -25 -113 11 -139
17 -12 38 -19 48 -16 17 6 91 75 115 108 11 16 14 16 44 2 18 -9 30 -20 27
-25 -10 -17 -7 -135 5 -156 7 -14 25 -25 48 -29 32 -6 39 -4 60 22 12 16 34
52 47 80 24 50 26 52 57 45 31 -6 34 -11 45 -63 6 -31 17 -70 24 -87 12 -30
18 -33 60 -33 11 0 24 0 30 1 15 2 39 55 53 118 13 56 15 58 49 61 32 3 35 1
46 -35 16 -52 68 -113 97 -113 12 0 33 9 46 19 22 18 24 26 23 105 l-2 85 30
10 c26 9 33 8 48 -12 31 -39 54 -62 84 -85 l29 -22 37 21 c37 21 38 23 33 68
-3 25 -9 54 -14 63 -5 10 -7 18 -3 18 3 0 -1 11 -9 24 -15 22 -14 25 7 45 29
27 34 27 82 -8 21 -15 56 -34 76 -42 36 -12 39 -12 66 14 36 35 33 59 -19 135
-37 55 -37 57 -21 84 9 16 19 28 22 28 3 0 31 -9 63 -20 86 -30 119 -27 141
14 22 42 14 61 -57 127 -46 43 -49 48 -40 75 9 26 14 29 44 26 43 -5 37 -5 89
-3 56 2 69 10 76 46 3 16 7 32 10 36 7 12 -67 68 -113 85 -40 15 -43 19 -40
50 1 19 2 34 2 34 0 1 18 3 40 6 22 4 63 15 91 25 48 18 51 21 51 57 0 20 -4
42 -9 49 -12 15 -93 42 -135 45 -18 1 -33 7 -34 13 0 5 -2 21 -5 35 -3 22 3
28 55 53 32 16 68 38 80 51 18 19 19 27 10 58 -6 24 -17 39 -32 44 -21 7 -130
8 -157 2 -7 -2 -16 10 -21 27 -8 27 -4 34 51 88 33 32 60 65 60 73 0 27 -32
72 -55 76 -12 3 -53 -6 -91 -18 l-69 -23 -23 26 -23 25 24 32 c27 35 67 110
67 125 0 16 -49 61 -67 61 -20 0 -133 -60 -133 -71 0 -15 -26 -10 -53 11 l-25
20 20 42 c11 23 21 64 22 91 1 47 -1 51 -33 69 -30 17 -35 17 -56 4 -29 -19
-65 -55 -91 -90 -18 -24 -21 -25 -46 -12 -15 8 -29 12 -31 10 -2 -3 -4 36 -3
85 1 93 -4 108 -42 116 -12 2 -26 6 -31 9 -14 9 -59 -43 -86 -100 -22 -47 -29
-54 -55 -54 -38 0 -39 2 -56 95 -3 17 -13 43 -23 60 -14 24 -24 30 -54 31 -20
1 -41 -3 -45 -10z m188 -241 c136 -20 352 -117 428 -191 19 -20 15 -28 -47
-95 l-58 -64 -39 27 c-98 66 -191 109 -269 124 -11 2 -33 7 -50 10 -61 13
-239 3 -292 -17 -13 -5 -23 -6 -23 -3 0 4 -6 2 -12 -3 -7 -6 -37 -18 -65 -28
-29 -11 -53 -23 -53 -27 0 -4 -3 -7 -7 -6 -5 1 -34 -15 -67 -37 l-58 -39 -58
64 c-32 36 -58 69 -57 75 8 42 245 171 356 191 14 3 27 7 31 9 4 2 29 7 56 11
27 3 50 7 52 9 5 5 187 -3 232 -10z m-239 -269 c4 -4 5 -22 4 -40 -6 -53 -17
-208 -20 -266 -3 -71 -12 -100 -31 -100 -24 0 -364 167 -364 179 0 16 78 89
139 129 66 44 86 55 166 85 62 24 95 28 106 13z m338 -29 c40 -16 95 -44 122
-62 63 -43 139 -115 139 -132 0 -7 -78 -51 -176 -98 -142 -69 -179 -83 -194
-75 -11 6 -19 21 -19 33 0 12 -2 49 -5 82 -2 33 -8 103 -11 155 -4 52 -7 97
-7 100 -3 36 3 41 40 34 20 -3 70 -20 111 -37z m-828 -34 c54 -53 72 -86 51
-95 -5 -1 -27 -28 -49 -58 -45 -59 -91 -155 -114 -235 -14 -51 -19 -251 -7
-313 7 -37 -13 -57 -69 -67 -18 -3 -44 -10 -58 -15 -39 -15 -44 -13 -56 18
-20 50 -29 233 -15 327 24 169 117 368 215 463 18 17 36 32 38 32 3 0 32 -26
64 -57z m1255 49 c27 -18 108 -130 139 -192 97 -193 123 -364 90 -587 -5 -35
-13 -54 -24 -58 -9 -2 -50 6 -91 18 l-75 23 2 45 c1 24 2 78 4 119 4 109 -7
180 -41 269 -28 73 -83 163 -130 213 -24 26 -16 45 53 111 52 49 55 51 73 39z
m-1113 -478 c78 -53 152 -107 165 -119 21 -19 22 -24 9 -36 -27 -26 -316 -219
-327 -219 -27 0 -55 130 -53 251 1 64 24 186 39 211 10 16 28 6 167 -88z m546
61 c47 -24 79 -59 102 -110 66 -150 -41 -315 -206 -315 -124 0 -225 101 -225
225 0 169 179 278 329 200z m522 -7 c6 -24 13 -52 16 -63 14 -57 9 -205 -9
-283 -18 -77 -21 -82 -41 -76 -19 6 -101 58 -117 74 -3 3 -51 36 -107 73 -57
38 -103 75 -103 83 0 15 33 40 208 160 59 40 115 73 124 73 12 1 21 -12 29
-41z m-288 -501 c94 -45 167 -87 167 -94 0 -17 -69 -84 -128 -125 -53 -37
-150 -82 -220 -102 -52 -15 -53 -15 -61 7 -5 12 -7 25 -5 28 2 4 6 37 8 75 20
298 21 308 54 297 9 -3 92 -42 185 -86z m-452 71 c1 -7 3 -22 4 -33 3 -23 12
-138 21 -272 5 -75 3 -94 -8 -98 -21 -8 -147 37 -222 79 -36 20 -93 62 -126
93 -70 65 -69 70 25 113 33 15 107 51 164 79 106 52 140 61 142 39z m-521 -94
c82 -157 207 -266 395 -344 42 -18 97 -32 102 -27 3 3 16 1 30 -4 29 -11 133
-14 204 -6 138 16 296 93 399 196 80 79 107 116 149 199 21 42 37 62 50 62 10
0 49 -11 87 -25 38 -14 70 -25 71 -25 7 0 -10 -47 -36 -99 -90 -182 -239 -329
-417 -412 -38 -17 -76 -35 -84 -39 -9 -4 -31 -11 -50 -15 -19 -4 -39 -10 -45
-13 -5 -3 -16 -7 -25 -8 -8 -1 -37 -5 -65 -10 -65 -9 -209 -9 -260 0 -22 4
-49 9 -60 10 -78 10 -256 90 -345 155 -56 41 -147 131 -192 188 -57 74 -131
224 -118 238 6 5 46 22 88 37 42 15 77 27 77 28 1 0 21 -39 45 -86z"/>
<path d="M1248 2185 c-2 -2 -23 -5 -46 -6 -32 -2 -41 -7 -37 -17 3 -7 5 -15 5
-17 0 -2 9 -1 20 2 22 6 22 6 26 -52 1 -22 3 -45 3 -52 1 -10 25 -12 34 -2 3
2 1 28 -2 57 -7 52 -5 57 27 53 8 -1 12 5 10 15 -3 15 -31 28 -40 19z"/>
<path d="M1334 2112 c-26 -56 -28 -68 -15 -71 8 -2 17 2 19 8 6 17 62 13 68
-4 4 -8 15 -15 25 -15 16 0 18 3 10 19 -6 10 -13 32 -16 49 -18 104 -48 108
-91 14z m59 -1 c3 -13 -1 -21 -15 -24 -14 -4 -18 -2 -14 10 3 8 6 19 6 24 0
17 18 9 23 -10z"/>
<path d="M1493 2093 c-18 -59 -19 -69 -6 -77 16 -9 33 7 33 32 0 25 25 6 28
-21 2 -15 12 -31 22 -37 16 -8 17 -6 13 24 -3 22 1 37 11 46 38 30 9 79 -55
95 -24 6 -27 3 -46 -62z m80 13 c-6 -23 -10 -26 -26 -21 -26 10 -21 36 6 31
12 -1 21 -6 20 -10z"/>
<path d="M1037 2139 c-24 -14 -39 -54 -31 -84 16 -64 131 -59 136 5 0 3 4 12
9 21 6 12 1 24 -18 43 -27 27 -65 33 -96 15z m77 -35 c33 -32 -24 -85 -62 -58
-21 15 -24 37 -9 62 11 17 52 15 71 -4z"/>
<path d="M1650 2108 c0 -2 4 -18 9 -36 7 -24 6 -44 -5 -74 -17 -50 -17 -48 1
-48 8 0 22 14 30 30 10 19 31 36 56 47 63 25 26 43 -41 20 -3 -1 -7 11 -10 28
-3 18 -12 31 -23 33 -9 2 -17 2 -17 0z"/>
<path d="M869 2067 l-35 -22 36 -62 c25 -42 40 -59 49 -54 7 5 10 18 6 33 -8
30 8 44 25 23 7 -8 24 -15 38 -15 l26 0 -27 28 c-15 15 -27 35 -27 44 0 19
-26 48 -43 48 -7 0 -28 -10 -48 -23z m51 -42 c-10 -12 -16 -13 -27 -3 -13 10
-12 14 3 25 24 17 42 0 24 -22z"/>
<path d="M1285 1499 c-65 -8 -107 -30 -139 -72 -52 -69 -62 -144 -27 -220 90
-198 389 -132 393 86 3 124 -106 222 -227 206z m55 -57 c0 -9 13 -23 30 -30
32 -14 66 -62 73 -103 7 -38 -27 -105 -64 -128 -45 -28 -120 -23 -155 9 -37
34 -57 85 -48 124 8 39 47 93 74 101 11 3 20 15 20 26 0 15 7 19 35 19 27 0
35 -4 35 -18z"/>
<path d="M635 926 c-11 -6 -22 -13 -25 -16 -3 -3 -22 -14 -42 -25 -40 -21 -42
-23 -30 -42 6 -9 17 -7 42 11 19 13 45 26 57 30 23 7 38 35 26 47 -4 4 -17 2
-28 -5z"/>
<path d="M2080 917 c0 -7 -6 -21 -13 -31 -13 -17 -16 -17 -64 8 -40 20 -53 23
-62 13 -7 -10 5 -21 52 -45 34 -18 65 -32 69 -32 6 0 48 76 48 86 0 1 -7 4
-15 8 -9 3 -15 0 -15 -7z"/>
<path d="M650 862 c-14 -9 -27 -19 -30 -23 -3 -3 -15 -11 -27 -18 -25 -13 -31
-41 -10 -41 7 0 23 7 35 16 13 9 25 14 27 12 7 -7 -7 -48 -16 -48 -7 0 -3 -50
5 -58 5 -5 116 88 116 98 0 20 -19 18 -44 -5 -15 -14 -29 -25 -31 -25 -3 0 2
18 11 40 15 38 14 71 -3 69 -4 0 -19 -8 -33 -17z"/>
<path d="M1877 826 c-3 -8 2 -25 11 -38 10 -13 26 -40 37 -61 21 -39 42 -44
38 -8 -2 11 1 21 6 21 6 0 13 9 16 20 5 14 12 19 25 15 10 -3 20 0 23 8 4 11
-14 20 -66 36 -85 25 -83 25 -90 7z m81 -43 c6 -19 -25 -16 -32 3 -4 11 -1 14
11 12 9 -2 18 -9 21 -15z"/>
<path d="M762 771 c-10 -6 -10 -10 3 -21 16 -13 20 -36 8 -42 -5 -2 -21 -18
-38 -36 -25 -28 -27 -34 -15 -42 11 -7 24 1 53 32 33 37 40 41 57 30 26 -16
36 3 12 25 -55 53 -68 62 -80 54z"/>
<path d="M1816 762 c-3 -5 6 -21 20 -37 13 -15 24 -29 24 -31 0 -2 -19 3 -41
11 -30 11 -45 12 -55 4 -10 -8 -4 -22 28 -65 23 -30 47 -54 54 -54 19 0 17 13
-6 43 -28 35 -26 37 23 22 80 -23 87 -3 20 66 -47 49 -58 56 -67 41z"/>
<path d="M846 620 c-21 -34 -37 -62 -35 -64 28 -24 89 -54 94 -45 8 12 -13 39
-31 39 -18 0 -24 13 -15 29 7 10 13 10 29 2 27 -14 41 5 16 23 -26 20 -8 40
19 21 26 -18 47 -19 47 -2 0 10 -70 58 -83 57 -1 0 -19 -27 -41 -60z"/>
<path d="M1648 629 c-24 -24 -29 -35 -23 -57 9 -38 31 -59 66 -64 41 -6 80 33
77 76 -3 37 -18 54 -59 66 -27 8 -35 6 -61 -21z m75 -13 c18 -14 22 -43 9 -62
-15 -22 -42 -24 -62 -4 -26 26 -25 45 2 64 27 19 28 19 51 2z"/>
<path d="M1002 608 c-7 -7 -12 -16 -12 -22 0 -5 -10 -30 -21 -54 -18 -36 -19
-46 -8 -53 10 -6 18 -1 27 17 17 32 36 26 40 -13 4 -44 32 -53 32 -11 0 17 6
39 14 47 23 25 23 52 1 65 -11 6 -23 16 -27 21 -4 6 -8 6 -8 1 0 -5 -6 -4 -13
3 -10 8 -17 7 -25 -1z m58 -53 c0 -16 -35 -21 -44 -6 -8 12 4 21 26 21 10 0
18 -7 18 -15z"/>
<path d="M1546 575 c28 -88 46 -125 59 -115 20 16 -23 139 -47 137 -13 -1 -16
-7 -12 -22z"/>
<path d="M1489 576 c-3 -3 -69 -14 -91 -16 -5 0 -8 -7 -8 -16 0 -11 6 -15 20
-11 27 7 34 -5 42 -73 3 -25 15 -40 31 -40 9 0 4 57 -8 97 -5 16 -2 23 14 28
12 3 21 13 21 21 0 13 -12 19 -21 10z"/>
<path d="M1125 533 c-5 -21 -9 -45 -10 -53 -1 -8 -6 -22 -9 -31 -10 -23 21
-33 33 -11 4 9 7 25 6 35 -6 34 22 16 35 -23 11 -32 18 -40 34 -38 16 2 20 11
22 48 1 25 5 58 8 73 4 23 2 28 -12 25 -10 -2 -17 -14 -19 -32 -3 -44 -12 -43
-30 2 -21 55 -48 57 -58 5z"/>
<path d="M1319 553 c-12 -3 -38 -65 -43 -105 -1 -3 -4 -10 -8 -14 -14 -13 -8
-24 12 -24 11 0 20 6 20 14 0 18 51 16 66 -3 6 -8 16 -11 22 -7 8 5 3 26 -15
69 -31 72 -33 75 -54 70z m12 -86 c-15 -15 -21 -5 -14 22 5 21 7 21 16 6 6
-11 5 -21 -2 -28z"/>
</g>
</svg>
